<svg width="100" height="100" viewBox="0 0 100 100" fill="none" xmlns="http://www.w3.org/2000/svg">
<path d="M48.7796 22.0537C50.4068 23.6809 50.4068 26.3191 48.7796 27.9463L30.8926 45.8333H79.1667C81.4679 45.8333 83.3333 47.6988 83.3333 50C83.3333 52.3012 81.4679 54.1667 79.1667 54.1667H30.8926L48.7796 72.0537C50.4068 73.6809 50.4068 76.3191 48.7796 77.9463C47.1524 79.5735 44.5143 79.5735 42.8871 77.9463L17.8871 52.9463C17.1057 52.1649 16.6667 51.1051 16.6667 50C16.6667 48.8949 17.1057 47.8351 17.8871 47.0537L42.8871 22.0537C44.5143 20.4265 47.1524 20.4265 48.7796 22.0537Z" fill="#272727"/>
</svg>
