<svg width="100" height="100" viewBox="0 0 100 100" fill="none" xmlns="http://www.w3.org/2000/svg">
<path d="M51.2204 22.0537C52.8476 20.4265 55.4858 20.4265 57.113 22.0537L82.113 47.0537C82.8944 47.8351 83.3333 48.895 83.3333 50C83.3333 51.1051 82.8944 52.1649 82.113 52.9463L57.113 77.9463C55.4858 79.5735 52.8476 79.5735 51.2204 77.9463C49.5932 76.3191 49.5932 73.6809 51.2204 72.0537L69.1075 54.1667L20.8334 54.1667C18.5322 54.1667 16.6667 52.3012 16.6667 50C16.6667 47.6988 18.5322 45.8334 20.8334 45.8334L69.1075 45.8334L51.2204 27.9463C49.5932 26.3191 49.5932 23.6809 51.2204 22.0537Z" fill="#272727"/>
</svg>
