<svg width="100" height="100" viewBox="0 0 100 100" fill="none" xmlns="http://www.w3.org/2000/svg">
<path fill-rule="evenodd" clip-rule="evenodd" d="M8 38.5116V8H38.5116V38.5116H8ZM0 5C0 2.23858 2.23858 0 5 0H41.5116C44.273 0 46.5116 2.23858 46.5116 5V41.5116C46.5116 44.273 44.2731 46.5116 41.5116 46.5116H5C2.23858 46.5116 0 44.2731 0 41.5116V5ZM61.4884 38.5116V8H92V38.5116H61.4884ZM53.4884 5C53.4884 2.23858 55.7269 0 58.4884 0H95C97.7614 0 100 2.23858 100 5V41.5116C100 44.273 97.7614 46.5116 95 46.5116H58.4884C55.7269 46.5116 53.4884 44.2731 53.4884 41.5116V5ZM8 61.4884V92H38.5116V61.4884H8ZM5 53.4884C2.23858 53.4884 0 55.7269 0 58.4884V95C0 97.7614 2.23858 100 5 100H41.5116C44.2731 100 46.5116 97.7614 46.5116 95V58.4884C46.5116 55.7269 44.273 53.4884 41.5116 53.4884H5ZM61.4884 92V61.4884H92V92H61.4884ZM53.4884 58.4884C53.4884 55.7269 55.7269 53.4884 58.4884 53.4884H95C97.7614 53.4884 100 55.7269 100 58.4884V95C100 97.7614 97.7614 100 95 100H58.4884C55.7269 100 53.4884 97.7614 53.4884 95V58.4884Z" fill="#272727"/>
</svg>
