<svg width="94" height="82" viewBox="0 0 94 82" fill="none" xmlns="http://www.w3.org/2000/svg">
<path fill-rule="evenodd" clip-rule="evenodd" d="M46.9998 0.247444L48.655 1.70968L92.198 40.1767C94.7039 42.3905 92.9758 46.5215 89.64 46.2915L80.7498 45.6784V77.5833C80.7498 79.5163 79.1828 81.0833 77.2498 81.0833H56.0001H53.5001V78.5833V51.9166H40.5001V78.5833V81.0833H38.0001H16.7498C14.8168 81.0833 13.2498 79.5163 13.2498 77.5833V45.6784L4.35988 46.2915C1.02415 46.5215 -0.704095 42.3905 1.8018 40.1767L45.3446 1.70968L46.9998 0.247444ZM46.9998 6.91911L8.4226 40.9994L15.5778 40.5059L18.2498 40.3216V43V76.0833H35.5001V49.4166V46.9166H38.0001H56.0001H58.5001V49.4166V76.0833H75.7498V43V40.3216L78.4218 40.5059L85.5772 40.9994L46.9998 6.91911Z" fill="#272727"/>
</svg>
