<svg width="100" height="100" viewBox="0 0 100 100" fill="none" xmlns="http://www.w3.org/2000/svg">
<path d="M37.5 91.6667H62.5V83.3334H37.5V91.6667ZM43.9167 8.95834C32.4584 11.2917 23.3334 20.6667 21.2917 32.2083C19.1667 44.25 24.4584 55.2083 33.3334 61.4167V75H66.6667V61.4167C74.2084 56.125 79.1667 47.4167 79.1667 37.5C79.1667 19.4167 62.625 5.12501 43.9167 8.95834ZM61.875 54.5833L58.3334 57.0833V66.6667H41.6667V57.0833L38.125 54.5833C32.5 50.6667 29.1667 44.2917 29.1667 37.5C29.1667 26 38.5 16.6667 50 16.6667C61.5 16.6667 70.8334 26 70.8334 37.5C70.8334 44.2917 67.5 50.6667 61.875 54.5833Z" fill="#272727"/>
</svg>
