<svg width="41" height="28" viewBox="0 0 41 28" fill="none" xmlns="http://www.w3.org/2000/svg">
<path fill-rule="evenodd" clip-rule="evenodd" d="M4.21088 0.0288696H3.46088V0.77887V2.57829H1.0032H0.253204V3.32829V26.1229C0.253204 27.0894 1.0367 27.8729 2.0032 27.8729H37.8915C39.2318 27.8729 40.2453 26.7346 40.2453 25.4232V0.77887V0.0288696H39.4953H4.21088ZM36.2876 2.57829H4.96088V1.52887H38.7453V25.4232C38.7453 25.9893 38.3226 26.3729 37.8915 26.3729C37.4603 26.3729 37.0376 25.9893 37.0376 25.4232V3.32829V2.57829H36.2876ZM35.5376 25.4232C35.5376 25.7562 35.603 26.078 35.7224 26.3729H2.0032C1.86513 26.3729 1.7532 26.2609 1.7532 26.1229V4.07829H4.21088H35.5376V25.4232ZM4.21084 6.54163H33.0799V11.4811H4.21084V6.54163ZM34.8767 14.75H2.79999V13.25H34.8767V14.75ZM34.8767 23.15H2.79999V21.65H34.8767V23.15ZM2.79999 18.95H34.8767V17.45H2.79999V18.95Z" fill="#323232"/>
</svg>
