<svg width="100" height="100" viewBox="0 0 100 100" fill="none" xmlns="http://www.w3.org/2000/svg">
<path d="M41.6667 16.6667C27.8596 16.6667 16.6667 27.8595 16.6667 41.6667C16.6667 55.4738 27.8596 66.6667 41.6667 66.6667C55.4738 66.6667 66.6667 55.4738 66.6667 41.6667C66.6667 27.8595 55.4738 16.6667 41.6667 16.6667ZM8.33334 41.6667C8.33334 23.2572 23.2572 8.33333 41.6667 8.33333C60.0762 8.33333 75 23.2572 75 41.6667C75 49.3696 72.3872 56.4623 67.9994 62.1068L90.4463 84.5537C92.0735 86.1809 92.0735 88.8191 90.4463 90.4463C88.8191 92.0735 86.1809 92.0735 84.5537 90.4463L62.1069 67.9994C56.4623 72.3872 49.3696 75 41.6667 75C23.2572 75 8.33334 60.0762 8.33334 41.6667Z" fill="#272727"/>
</svg>
