<svg width="100" height="100" viewBox="0 0 100 100" fill="none" xmlns="http://www.w3.org/2000/svg">
<path d="M80.9584 54.0833C81.1251 52.75 81.2501 51.4166 81.2501 50C81.2501 48.5833 81.1251 47.25 80.9584 45.9167L89.7501 39.0416C90.5417 38.4166 90.7501 37.2916 90.2501 36.375L81.9167 21.9583C81.5417 21.2916 80.8334 20.9166 80.0834 20.9166C79.8334 20.9166 79.5834 20.9583 79.3751 21.0416L69.0001 25.2083C66.8334 23.5416 64.5001 22.1666 61.9584 21.125L60.3751 10.0833C60.2501 9.08331 59.3751 8.33331 58.3334 8.33331H41.6667C40.6251 8.33331 39.7501 9.08331 39.6251 10.0833L38.0417 21.125C35.5001 22.1666 33.1667 23.5833 31.0001 25.2083L20.6251 21.0416C20.3751 20.9583 20.1251 20.9166 19.8751 20.9166C19.1667 20.9166 18.4584 21.2916 18.0834 21.9583L9.75006 36.375C9.2084 37.2916 9.4584 38.4166 10.2501 39.0416L19.0417 45.9167C18.8751 47.25 18.7501 48.625 18.7501 50C18.7501 51.375 18.8751 52.75 19.0417 54.0833L10.2501 60.9583C9.4584 61.5833 9.25006 62.7083 9.75006 63.625L18.0834 78.0416C18.4584 78.7083 19.1667 79.0833 19.9167 79.0833C20.1667 79.0833 20.4167 79.0417 20.6251 78.9583L31.0001 74.7917C33.1667 76.4583 35.5001 77.8333 38.0417 78.875L39.6251 89.9167C39.7501 90.9167 40.6251 91.6667 41.6667 91.6667H58.3334C59.3751 91.6667 60.2501 90.9167 60.3751 89.9167L61.9584 78.875C64.5001 77.8333 66.8334 76.4167 69.0001 74.7917L79.3751 78.9583C79.6251 79.0417 79.8751 79.0833 80.1251 79.0833C80.8334 79.0833 81.5417 78.7083 81.9167 78.0416L90.2501 63.625C90.7501 62.7083 90.5417 61.5833 89.7501 60.9583L80.9584 54.0833V54.0833ZM72.7084 46.9583C72.8751 48.25 72.9167 49.125 72.9167 50C72.9167 50.875 72.8334 51.7916 72.7084 53.0416L72.1251 57.75L75.8334 60.6667L80.3334 64.1666L77.4167 69.2083L72.1251 67.0833L67.7917 65.3333L64.0417 68.1667C62.2501 69.5 60.5417 70.5 58.8334 71.2083L54.4167 73L53.7501 77.7083L52.9167 83.3333H47.0834L46.2917 77.7083L45.6251 73L41.2084 71.2083C39.4167 70.4583 37.7501 69.5 36.0834 68.25L32.2917 65.3333L27.8751 67.125L22.5834 69.25L19.6667 64.2083L24.1667 60.7083L27.8751 57.7916L27.2917 53.0833C27.1667 51.7916 27.0834 50.8333 27.0834 50C27.0834 49.1666 27.1667 48.2083 27.2917 46.9583L27.8751 42.25L24.1667 39.3333L19.6667 35.8333L22.5834 30.7916L27.8751 32.9166L32.2084 34.6666L35.9584 31.8333C37.7501 30.5 39.4584 29.5 41.1667 28.7916L45.5834 27L46.2501 22.2916L47.0834 16.6666H52.8751L53.6667 22.2916L54.3334 27L58.7501 28.7916C60.5417 29.5416 62.2084 30.5 63.8751 31.75L67.6667 34.6666L72.0834 32.875L77.3751 30.75L80.2917 35.7916L75.8334 39.3333L72.1251 42.25L72.7084 46.9583ZM50.0001 33.3333C40.7917 33.3333 33.3334 40.7916 33.3334 50C33.3334 59.2083 40.7917 66.6667 50.0001 66.6667C59.2084 66.6667 66.6667 59.2083 66.6667 50C66.6667 40.7916 59.2084 33.3333 50.0001 33.3333ZM50.0001 58.3333C45.4167 58.3333 41.6667 54.5833 41.6667 50C41.6667 45.4166 45.4167 41.6666 50.0001 41.6666C54.5834 41.6666 58.3334 45.4166 58.3334 50C58.3334 54.5833 54.5834 58.3333 50.0001 58.3333Z" fill="#272727"/>
</svg>
