<svg width="20" height="23" viewBox="0 0 20 23" fill="none" xmlns="http://www.w3.org/2000/svg">
<path fill-rule="evenodd" clip-rule="evenodd" d="M18.8 2.99792C18.8 3.9901 17.9949 4.79584 17 4.79584C16.0051 4.79584 15.2 3.9901 15.2 2.99792C15.2 2.00574 16.0051 1.2 17 1.2C17.9949 1.2 18.8 2.00574 18.8 2.99792ZM20 2.99792C20 4.65362 18.6569 5.99584 17 5.99584C16.1675 5.99584 15.4142 5.65698 14.8707 5.10976L5.88381 10.6704C5.95947 10.9338 6 11.2122 6 11.5C6 11.8828 5.92831 12.2488 5.79763 12.5854L14.8178 17.9406C15.3648 17.3615 16.1402 17 17 17C18.6569 17 20 18.3422 20 19.9979C20 21.6536 18.6569 22.9958 17 22.9958C15.3431 22.9958 14 21.6536 14 19.9979C14 19.6331 14.0652 19.2836 14.1846 18.9602L5.14739 13.5949C4.60257 14.1533 3.84177 14.5 3 14.5C1.34315 14.5 0 13.1569 0 11.5C0 9.84315 1.34315 8.5 3 8.5C3.93799 8.5 4.77544 8.93048 5.32555 9.60465L14.2117 4.10636C14.0751 3.76348 14 3.38947 14 2.99792C14 1.34221 15.3431 0 17 0C18.6569 0 20 1.34221 20 2.99792ZM4.8 11.5C4.8 12.4941 3.99411 13.3 3 13.3C2.00589 13.3 1.2 12.4941 1.2 11.5C1.2 10.5059 2.00589 9.7 3 9.7C3.99411 9.7 4.8 10.5059 4.8 11.5ZM17 21.7958C17.9949 21.7958 18.8 20.9901 18.8 19.9979C18.8 19.0057 17.9949 18.2 17 18.2C16.0051 18.2 15.2 19.0057 15.2 19.9979C15.2 20.9901 16.0051 21.7958 17 21.7958Z" fill="#272727"/>
</svg>
